<svg
  width="24"
  height="24"
  viewBox="0 0 24 24"
  fill="none"
  xmlns="http://www.w3.org/2000/svg"
>
  <path
    fill-rule="evenodd"
    clip-rule="evenodd"
    d="M5.75 2C4.50736 2 3.5 3.00736 3.5 4.25V19.75C3.5 20.9926 4.50736 22 5.75 22H18.25C19.4926 22 20.5 20.9926 20.5 19.75V8.5C20.5 8.2989 20.4196 8.10633 20.2764 7.96447L15.0264 2.71447C14.8845 2.57131 14.6919 2.5 14.5 2.5H5.75ZM5 4.25C5 3.83579 5.33579 3.5 5.75 3.5H14V7.75C14 8.16421 14.3358 8.5 14.75 8.5H19V19.75C19 20.1642 18.6642 20.5 18.25 20.5H5.75C5.33579 20.5 5 20.1642 5 19.75V4.25ZM15.5 3.62131L18.3787 6.5H15.5V3.62131ZM8.5 12C8.08579 12 7.75 12.3358 7.75 12.75V17C7.75 17.4142 8.08579 17.75 8.5 17.75C8.91421 17.75 9.25 17.4142 9.25 17V12.75C9.25 12.3358 8.91421 12 8.5 12ZM12 10C11.5858 10 11.25 10.3358 11.25 10.75V17C11.25 17.4142 11.5858 17.75 12 17.75C12.4142 17.75 12.75 17.4142 12.75 17V10.75C12.75 10.3358 12.4142 10 12 10ZM15.5 13C15.0858 13 14.75 13.3358 14.75 13.75V17C14.75 17.4142 15.0858 17.75 15.5 17.75C15.9142 17.75 16.25 17.4142 16.25 17V13.75C16.25 13.3358 15.9142 13 15.5 13Z"
    fill="currentColor"
  />
</svg>